<?xml version="1.0" encoding="UTF-8"?>
<svg id="Layer_2" data-name="Layer 2" xmlns="http://www.w3.org/2000/svg" viewBox="0 0 48 48">
  <defs>
    <style>
      .cls-1 {
        fill: #fff;
        isolation: isolate;
        opacity: 1;
      }
    </style>
  </defs>
  <g id="Layer_1-2" data-name="Layer 1">
    <g>
      <path class="cls-1" d="M31.6,27.08c-1.7,4.2-6.48,6.22-10.68,4.52-4.2-1.7-6.22-6.48-4.52-10.68h-4.48v12.28h0c0,1.59,1.29,2.88,2.88,2.88h18.4c1.59,0,2.88-1.29,2.88-2.88v-12.28s-4.48,0-4.48,0c.8,1.97,.8,4.18,0,6.16Z"/>
      <path class="cls-1" d="M20.9,28.28c2.36,1.71,5.65,1.18,7.36-1.18,1.71-2.36,1.18-5.65-1.18-7.36-2.36-1.71-5.65-1.18-7.36,1.18-.65,.9-1,1.97-1,3.08,0,1.69,.81,3.29,2.18,4.28Z"/>
      <polygon class="cls-1" points="35.53 17.54 35.53 12.46 34.86 12.46 30.44 12.48 30.46 17.56 35.53 17.54"/>
      <path class="cls-1" d="M24,0C10.75,0,0,10.75,0,24s10.75,24,24,24,24-10.75,24-24S37.25,0,24,0Zm15,33.2c0,3.2-2.6,5.8-5.8,5.8H14.8c-3.2,0-5.8-2.6-5.8-5.8V14.8c0-3.2,2.6-5.8,5.8-5.8h18.4c3.2,0,5.8,2.6,5.8,5.8v18.4Z"/>
    </g>
  </g>
</svg>