<?xml version="1.0" encoding="utf-8"?>
<!-- Generator: Adobe Illustrator 27.3.1, SVG Export Plug-In . SVG Version: 6.00 Build 0)  -->
<svg version="1.1" id="Layer_2_00000105387326796776639600000005299198748405704602_"
	 xmlns="http://www.w3.org/2000/svg" xmlns:xlink="http://www.w3.org/1999/xlink" x="0px" y="0px" viewBox="0 0 314 87.3"
	 style="enable-background:new 0 0 314 87.3;" xml:space="preserve">
<style type="text/css">
	.st0{fill:#39FF14;}
</style>
<g id="Layer_1-2">
	<g>
		<path class="st0" d="M27.7,14.2c-5.3,0-9.7,1-12.5,6.5c-3.7,7.3,1.4,16.7,9.3,16.7c36.3,0,12.1-0.2,48.4,0.1
			c18.4,0.2,28.8,19,22.3,34.8c-3.8,9.2-12,15-21.6,15H36.9c-2.7,0-5-0.4-6.4-3.3c-1.3-2.7-1.2-5.5,0.6-7.4c1.4-1.4,3.7-2.5,5.7-2.6
			c8.2-0.3,15.2-0.2,23.4-0.2c20.1,0-7.9,0,12.3,0c4.4,0,8.1-1.6,10.1-6c2-4.3,1.9-8.7-1.2-12.3c-1.6-1.8-4.1-2.9-6.4-3.8
			c-1.7-0.6-3.7-0.5-5.6-0.5H43c-10,0-11.3,0.2-21.3-0.1C12,50.8,6.2,44.6,2.3,36c-4.2-9.4-2.3-18.4,3-26.2C9.9,3,17-0.1,25.3,0
			c21.2,0.1-18.1,0,3,0h100.8c6.6,0,9.5,3.8,7.4,10.2c-0.5,1.5-2.2,3.4-3.9,3.5"/>
		<g>
			<path class="st0" d="M109.6,85.6L95.9,40.7H107l8.1,29.4l7.4-29.4h11l7.2,29.4l8.3-29.4h11.3l-13.9,44.9h-11L128,56.8l-7.3,28.8
				H109.6z"/>
			<path class="st0" d="M187.6,70.8l11.4,2c-1.5,4.3-3.8,7.6-6.9,9.9c-3.2,2.3-7.1,3.4-11.9,3.4c-7.5,0-13.1-2.5-16.7-7.6
				c-2.8-4.1-4.3-9.2-4.3-15.5c0-7.4,1.9-13.3,5.6-17.5s8.5-6.3,14.2-6.3c6.4,0,11.5,2.2,15.2,6.6s5.5,11.2,5.3,20.3h-28.6
				c0.1,3.5,1,6.3,2.8,8.2c1.8,2,4,2.9,6.6,2.9c1.8,0,3.3-0.5,4.5-1.5S187,73.1,187.6,70.8L187.6,70.8z M188.2,58.8
				c-0.1-3.4-0.9-6-2.6-7.8c-1.6-1.8-3.6-2.7-5.9-2.7c-2.5,0-4.6,0.9-6.2,2.8s-2.4,4.4-2.4,7.7H188.2L188.2,58.8z"/>
			<path class="st0" d="M216.1,86.1h-11.4V41.2h10.6v6.4c1.8-3,3.5-5,4.9-6c1.5-1,3.1-1.4,4.9-1.4c2.6,0,5.1,0.7,7.5,2.2l-3.5,10.3
				c-1.9-1.3-3.7-1.9-5.4-1.9c-1.6,0-3,0.5-4.1,1.4s-2,2.6-2.6,5s-1,7.4-1,15v13.9H216.1z"/>
			<path class="st0" d="M250,85.6l-17.4-44.9h12l8.1,22.9l2.4,7.6c0.6-1.9,1-3.2,1.2-3.8c0.4-1.3,0.8-2.5,1.2-3.8l8.2-22.9h11.8
				l-17.2,44.9H250z"/>
			<path class="st0" d="M302.1,71.3l11.4,2c-1.5,4.3-3.8,7.6-6.9,9.9c-3.2,2.3-7.1,3.4-11.9,3.4c-7.5,0-13.1-2.5-16.7-7.6
				c-2.8-4.1-4.3-9.2-4.3-15.5c0-7.4,1.9-13.3,5.6-17.5s8.5-6.3,14.2-6.3c6.4,0,11.5,2.2,15.2,6.6s5.5,11.2,5.3,20.3h-28.6
				c0.1,3.5,1,6.3,2.8,8.2c1.8,2,4,2.9,6.6,2.9c1.8,0,3.3-0.5,4.5-1.5S301.4,73.6,302.1,71.3z M302.7,59.3c-0.1-3.4-0.9-6-2.6-7.8
				c-1.6-1.8-3.6-2.7-5.9-2.7c-2.5,0-4.6,0.9-6.2,2.8s-2.4,4.4-2.4,7.7H302.7z"/>
		</g>
	</g>
</g>
</svg>
