<?xml version="1.0" encoding="UTF-8"?>
<svg id="Layer_2" data-name="Layer 2" xmlns="http://www.w3.org/2000/svg" viewBox="0 0 48 48">
  <defs>
    <style>
      .cls-1 {
        fill: #fff;
        isolation: isolate;
        opacity: 1;
      }
    </style>
  </defs>
  <g id="Layer_1-2" data-name="Layer 1">
    <path class="cls-1" d="M24,0C10.75,0,0,10.75,0,24s10.75,24,24,24,24-10.75,24-24S37.25,0,24,0Zm11.93,17.98c.02,.26,.02,.52,.02,.78,0,.09,0,.17,0,.26-.15,9.52-7.98,17.13-17.51,16.98-3.34,0-6.61-.94-9.44-2.72,.49,.06,.98,.08,1.47,.08,2.77,0,5.45-.91,7.65-2.59-2.62-.04-4.92-1.72-5.75-4.21,.92,.17,1.87,.14,2.78-.1-2.85-.55-4.92-3.04-4.94-5.94v-.08c.86,.47,1.81,.73,2.79,.76-1.71-1.11-2.73-3.01-2.74-5.04,0-1.07,.29-2.12,.83-3.05,3.15,3.8,7.76,6.1,12.69,6.33-.11-.45-.16-.92-.16-1.38,.03-3.37,2.78-6.09,6.16-6.06,1.7,0,3.32,.69,4.49,1.91,1.38-.27,2.7-.76,3.91-1.47,0,0,0,0,0,0h0s0,0,0,0c-.46,1.41-1.43,2.6-2.71,3.35,1.22-.14,2.41-.46,3.53-.95-.83,1.22-1.87,2.28-3.07,3.14Z"/>
  </g>
</svg>