<?xml version="1.0" encoding="UTF-8"?>
<svg id="Layer_2" data-name="Layer 2" xmlns="http://www.w3.org/2000/svg" viewBox="0 0 48 48">
  <defs>
    <style>
      .cls-1 {
        fill: #fff;
        isolation: isolate;
        opacity: 1;
      }
    </style>
  </defs>
  <g id="Layer_1-2" data-name="Layer 1">
    <g>
      <polygon class="cls-1" points="20.9 28.06 29.01 23.68 20.9 19.27 20.9 28.06"/>
      <path class="cls-1" d="M24,0C10.75,0,0,10.75,0,24s10.75,24,24,24,24-10.75,24-24S37.25,0,24,0Zm14.99,25.18c-.01,1.69-.11,3.38-.3,5.06-.14,1.11-.55,2.18-1.19,3.1-.78,.83-1.86,1.31-3,1.33-4.2,.31-10.5,.33-10.5,.33,0,0-7.8-.08-10.2-.32-1.23-.02-2.41-.5-3.31-1.34-.64-.92-1.05-1.99-1.19-3.1-.19-1.68-.29-3.37-.3-5.06v-2.37c.01-1.69,.11-3.38,.3-5.06,.14-1.12,.55-2.18,1.19-3.11,.78-.83,1.87-1.31,3.01-1.32,4.2-.32,10.5-.32,10.5-.32h.01s6.29,0,10.5,.32c1.14,.02,2.22,.49,3,1.32,.64,.92,1.05,1.99,1.19,3.11h0c.19,1.68,.29,3.37,.3,5.06v2.38Z"/>
    </g>
  </g>
</svg>